<?xml version="1.0" encoding="UTF-8"?>
<svg xmlns="http://www.w3.org/2000/svg" version="1.1" xmlns:xlink="http://www.w3.org/1999/xlink" viewBox="0 0 289.4 56">
  <defs>
    <style>
      .cls-1 {
        fill: url(#Adsız_degrade);
      }

      .cls-2 {
        fill: #ef305e;
      }

      .cls-3 {
        fill: #f4f4f4;
      }

      .cls-4 {
        fill: #0d2451;
      }
    </style>
    <linearGradient id="Adsız_degrade" data-name="Adsız degrade" x1="28.5" y1="32.1" x2="48.5" y2="26.1" gradientTransform="translate(0 58.4) scale(1 -1)" gradientUnits="userSpaceOnUse">
      <stop offset="0" stop-color="#000" stop-opacity=".2"/>
      <stop offset=".9" stop-color="#fff" stop-opacity="0"/>
    </linearGradient>
  </defs>
  <!-- Generator: Adobe Illustrator 28.6.0, SVG Export Plug-In . SVG Version: 1.2.0 Build 709)  -->
  <g>
    <g id="katman_1">
      <path class="cls-2" d="M61.1,2.8l15.2,47.4c.8,2.6-1.1,5.2-3.8,5.2h-11.2c-1.7,0-3.3-1.1-3.8-2.8L42.5,5.2C41.7,2.6,43.6,0,46.3,0h11C59,0,60.6,1.1,61.1,2.8Z"/>
      <g>
        <path class="cls-3" d="M46.5,37.8L35.8,3.4C35.2,1.4,33.3,0,31.1,0s-4.8,2.1-4.9,4.7l-1.3,25.7c0,.9,0,1.8.3,2.7l5.8,19.5c.5,1.7,2.1,2.9,3.8,2.9h5.4c1.7,0,3.3-1.1,3.8-2.8l2.4-7.5c.7-2.3.8-4.9,0-7.2Z"/>
        <path class="cls-1" d="M46.5,37.8L35.8,3.4C35.2,1.4,33.3,0,31.1,0s-4.8,2.1-4.9,4.7l-1.3,25.7c0,.9,0,1.8.3,2.7l5.8,19.5c.5,1.7,2.1,2.9,3.8,2.9h5.4c1.7,0,3.3-1.1,3.8-2.8l2.4-7.5c.7-2.3.8-4.9,0-7.2Z"/>
      </g>
      <path class="cls-2" d="M20.3,0h11C34,0,36,2.6,35.2,5.2l-14.9,47.8c-.5,1.7-2.1,2.8-3.8,2.8H5.4c-2.7,0-4.6-2.6-3.8-5.2L16.5,2.8C17,1.1,18.6,0,20.3,0Z"/>
      <g>
        <path class="cls-4" d="M98.4,27.5l5.3-17.9h6v29.5h-4.8v-21.8l.3,1.3-5,16.2h-3.7l-5-15.8.3-1.7v21.8h-4.8V9.5h6l5.3,17.9Z"/>
        <path class="cls-4" d="M119.9,39.3c-1.9,0-3.3-.5-4.3-1.6-1-1-1.5-2.6-1.5-4.7s.6-3.8,1.8-4.9,3-1.7,5.4-1.7h3.4l.3,4.1h-3.6c-.8,0-1.5.2-1.9.6s-.6,1-.6,1.9.2,1.1.6,1.5c.4.3,1,.5,1.7.5,1.1,0,1.9-.2,2.5-.5.6-.4.8-.9.8-1.6l.4,2.4c0,.9-.3,1.7-.8,2.3-.5.6-1.1,1.1-1.8,1.4s-1.6.5-2.5.5ZM124.6,39v-14.2c0-.8-.2-1.3-.7-1.8s-1.1-.6-2-.6-1.2.1-1.7.4c-.5.3-.9.7-1.2,1.2l-4.1-1.7c.4-1.5,1.3-2.6,2.5-3.5s2.8-1.2,4.6-1.2,4.3.6,5.6,1.9c1.3,1.2,2,3,2,5.2v14.3h-4.9Z"/>
        <path class="cls-4" d="M139.3,39.4c-1.8,0-3.2-.7-4.1-1.9-1-1.3-1.5-3.1-1.5-5.5v-6.8c0-2.4.5-4.2,1.5-5.5,1-1.3,2.4-1.9,4.1-1.9s2,.3,2.8,1c.9.7,1.5,1.6,2,2.8l-.4,3.7c0-.6,0-1-.3-1.4-.2-.4-.5-.7-.8-.9s-.8-.3-1.3-.3c-.8,0-1.4.3-1.8.8-.4.5-.6,1.3-.6,2.2v6.1c0,.9.2,1.6.6,2.1.4.5,1,.8,1.8.8s.9,0,1.3-.3.6-.5.8-.9c.2-.4.3-.9.3-1.4l.3,3.8c-.4,1.1-1,2-1.8,2.7-.8.6-1.8,1-2.9,1ZM141,47.6c-2,0-3.6-.5-4.8-1.4-1.2-.9-1.9-2.3-2.2-4.1l5.1-1.6c.2.7.5,1.2.9,1.6.4.4.9.5,1.5.5s1.2-.2,1.6-.7c.4-.4.6-1.1.6-1.8v-22.2h5.3v22c0,2.4-.7,4.3-2.1,5.7-1.4,1.3-3.4,2-5.9,2ZM141.5,14.6c-1.9,0-3.4-.6-4.4-1.7s-1.5-2.7-1.5-4.9v-1h4.2v.8c0,2,.6,3,1.7,3h.4c1.1,0,1.7-1,1.7-3v-.8h4.2v1c0,2.2-.5,3.8-1.5,4.9s-2.5,1.7-4.4,1.7h-.4Z"/>
        <path class="cls-4" d="M158.9,39.3c-1.9,0-3.3-.5-4.3-1.6-1-1-1.5-2.6-1.5-4.7s.6-3.8,1.8-4.9c1.2-1.1,3-1.7,5.4-1.7h3.4l.3,4.1h-3.6c-.8,0-1.5.2-1.9.6-.4.4-.6,1-.6,1.9s.2,1.1.6,1.5c.4.3,1,.5,1.7.5,1.1,0,1.9-.2,2.5-.5s.8-.9.8-1.6l.4,2.4c0,.9-.3,1.7-.8,2.3-.5.6-1.1,1.1-1.8,1.4s-1.6.5-2.5.5ZM163.7,39v-14.2c0-.8-.2-1.3-.7-1.8s-1.1-.6-2-.6-1.2.1-1.7.4c-.5.3-.9.7-1.2,1.2l-4.1-1.7c.4-1.5,1.3-2.6,2.5-3.5s2.8-1.2,4.6-1.2,4.3.6,5.6,1.9c1.3,1.2,2,3,2,5.2v14.3h-4.9Z"/>
        <path class="cls-4" d="M186.5,18v4.5l-7.9,11.7h8.5v4.9h-14.4v-4.6l8.2-11.6h-7.9v-4.9h13.6Z"/>
        <path class="cls-4" d="M196.1,39.3c-1.9,0-3.3-.5-4.3-1.6-1-1-1.5-2.6-1.5-4.7s.6-3.8,1.8-4.9c1.2-1.1,3-1.7,5.4-1.7h3.4l.3,4.1h-3.6c-.8,0-1.5.2-1.9.6-.4.4-.6,1-.6,1.9s.2,1.1.6,1.5c.4.3,1,.5,1.7.5,1.1,0,1.9-.2,2.5-.5s.8-.9.8-1.6l.4,2.4c0,.9-.3,1.7-.8,2.3-.5.6-1.1,1.1-1.8,1.4s-1.6.5-2.5.5ZM200.8,39v-14.2c0-.8-.2-1.3-.7-1.8s-1.1-.6-2-.6-1.2.1-1.7.4c-.5.3-.9.7-1.2,1.2l-4.1-1.7c.4-1.5,1.3-2.6,2.5-3.5s2.8-1.2,4.6-1.2,4.3.6,5.6,1.9c1.3,1.2,2,3,2,5.2v14.3h-4.9Z"/>
        <path class="cls-4" d="M205.9,14.6v-5.1h18.2v5.1h-18.2ZM212.4,39V12h5.3v27.1h-5.3Z"/>
        <path class="cls-4" d="M229.5,39.3c-1.9,0-3.3-.5-4.3-1.6-1-1-1.5-2.6-1.5-4.7s.6-3.8,1.8-4.9c1.2-1.1,3-1.7,5.4-1.7h3.4l.3,4.1h-3.6c-.8,0-1.5.2-1.9.6-.4.4-.6,1-.6,1.9s.2,1.1.6,1.5c.4.3,1,.5,1.7.5,1.1,0,1.9-.2,2.5-.5s.8-.9.8-1.6l.4,2.4c0,.9-.3,1.7-.8,2.3-.5.6-1.1,1.1-1.8,1.4s-1.6.5-2.5.5ZM234.3,39v-14.2c0-.8-.2-1.3-.7-1.8s-1.1-.6-2-.6-1.2.1-1.7.4c-.5.3-.9.7-1.2,1.2l-4.1-1.7c.4-1.5,1.3-2.6,2.5-3.5s2.8-1.2,4.6-1.2,4.3.6,5.6,1.9c1.3,1.2,2,3,2,5.2v14.3h-4.9Z"/>
        <path class="cls-4" d="M243.9,39V9.5h5.3v29.5h-5.3ZM247.3,37.1l-.5-6.5,8.1-12.6h5.5l-13.1,19.2ZM255.5,39l-4.7-10.7,3.9-3.1,6.8,13.8h-5.9Z"/>
        <path class="cls-4" d="M262.9,14.8v-5.3h5.3v5.3h-5.3ZM262.9,39v-21.1h5.3v21.1h-5.3Z"/>
        <path class="cls-4" d="M272.6,47.6v-29.6h5.3v29.6h-5.3ZM282.2,39.3c-1.1,0-2-.3-2.9-1s-1.4-1.5-1.8-2.7l.3-3.9c0,.6,0,1,.3,1.4s.5.7.8.9.8.3,1.3.3c.8,0,1.4-.3,1.8-.8.4-.5.6-1.3.6-2.2v-6c0-.9-.2-1.7-.6-2.2-.4-.5-1-.8-1.8-.8s-.9.1-1.3.3c-.4.2-.6.5-.8.9-.2.4-.3.9-.3,1.4l-.4-3.6c.5-1.2,1.2-2.2,2-2.8.8-.7,1.8-1,2.8-1,1.8,0,3.2.7,4.2,2,1,1.3,1.5,3.2,1.5,5.6v6.7c0,2.4-.5,4.2-1.5,5.5-1,1.3-2.4,2-4.2,2Z"/>
      </g>
      <g>
        <path class="cls-4" d="M166.5,50.5c-.5,0-1-.1-1.4-.4s-.7-.6-.9-1c-.2-.4-.3-.9-.3-1.5v-2.1c0-.6.1-1.1.3-1.5.2-.4.5-.8.9-1,.4-.2.9-.4,1.4-.4s.8,0,1.2.3c.4.2.7.5.9.8.2.3.4.7.5,1.2h-1.1c0-.2-.2-.5-.3-.6s-.3-.3-.6-.4c-.2-.1-.4-.2-.7-.2-.5,0-.8.2-1.1.5-.3.3-.4.8-.4,1.3v2.1c0,.5.1,1,.4,1.3.3.3.7.5,1.1.5s.6-.1.9-.3.5-.5.6-.9h1.1c0,.5-.3.9-.5,1.2-.2.3-.6.6-.9.8-.4.2-.8.3-1.2.3Z"/>
        <path class="cls-4" d="M172.8,42.7v6.3c0,.1,0,.2,0,.3,0,0,.1.1.2.1h.5v1h-.6c-.4,0-.7-.1-.9-.4s-.3-.6-.3-1.1v-6.2h1.1Z"/>
        <path class="cls-4" d="M178,50.5c-.7,0-1.3-.2-1.7-.6-.4-.4-.6-1-.6-1.8v-.9c0-.7.2-1.3.6-1.7s.9-.6,1.7-.6,1.3.2,1.7.6.6,1,.6,1.7v.9c0,.8-.2,1.3-.6,1.7s-.9.6-1.7.6ZM178,49.4c.4,0,.7-.1.9-.4.2-.2.3-.6.3-1v-.9c0-.4-.1-.8-.3-1-.2-.2-.5-.3-.9-.3s-.7.1-.9.3c-.2.2-.3.6-.3,1v.9c0,.4.1.8.3,1s.5.4.9.4Z"/>
        <path class="cls-4" d="M183.8,44.9v3.3c0,.4,0,.7.3.9.2.2.5.3.8.3s.6,0,.8-.3c.2-.2.3-.5.3-.8v1.1c0,.2-.2.5-.4.7-.2.2-.6.3-1,.3-.6,0-1.1-.2-1.4-.6-.3-.4-.5-.9-.5-1.6v-3.3h1.1ZM186,50.4v-5.5h1.1v5.5h-1.1Z"/>
        <path class="cls-4" d="M191.5,50.5c-.6,0-1.1-.2-1.4-.6-.3-.4-.5-.9-.5-1.6v-1.2c0-.7.2-1.3.5-1.6.3-.4.8-.6,1.4-.6s.6,0,.9.3c.3.2.5.4.7.7v1.1c-.1-.2-.2-.4-.2-.6,0-.2-.2-.3-.4-.4-.2,0-.4-.1-.6-.1-.4,0-.6.1-.8.3-.2.2-.3.5-.3.9v1.2c0,.4,0,.7.3.9.2.2.5.3.8.3s.4,0,.6-.1c.2,0,.3-.2.4-.4,0-.2.1-.4.1-.6v1.2c0,.2-.2.5-.4.7-.2.2-.6.3-.9.3ZM192.9,50.4v-7.7h1.1v7.7h-1.1Z"/>
        <path class="cls-4" d="M202.5,48.7l1.6-6h.7l1.6,6,1.4-6h1.1l-1.9,7.7h-1.1l-1.4-5.4-1.5,5.4h-1.1l-1.9-7.7h1.1l1.4,6Z"/>
        <path class="cls-4" d="M212.5,50.5c-.7,0-1.3-.2-1.7-.6-.4-.4-.6-1-.6-1.8v-.9c0-.7.2-1.3.6-1.7s.9-.6,1.7-.6,1.3.2,1.7.6.6,1,.6,1.7v.9c0,.8-.2,1.3-.6,1.7s-.9.6-1.7.6ZM212.5,49.4c.4,0,.7-.1.9-.4.2-.2.3-.6.3-1v-.9c0-.4-.1-.8-.3-1-.2-.2-.5-.3-.9-.3s-.7.1-.9.3c-.2.2-.3.6-.3,1v.9c0,.4.1.8.3,1s.5.4.9.4Z"/>
        <path class="cls-4" d="M217.4,50.4v-5.5h1.1v5.5h-1.1ZM220.4,46.2c0-.1-.2-.2-.4-.3-.1,0-.3,0-.5,0-.3,0-.6,0-.8.3-.2.2-.3.4-.3.8v-1.1c0-.3.3-.6.5-.8s.6-.3.9-.3.5,0,.7.1.4.2.5.3l-.7.9Z"/>
        <path class="cls-4" d="M223.1,50.4v-7.7h1.1v7.7h-1.1ZM223.5,49.6v-1.3c0,0,2.9-3.4,2.9-3.4h1.3l-4.1,4.7ZM226.7,50.4l-1.9-3.2.7-.7,2.4,3.9h-1.2Z"/>
        <path class="cls-4" d="M232.1,50.5c-.8,0-1.4-.2-1.8-.6s-.6-1-.6-1.8v-.6c0-.8.2-1.4.6-1.9s1-.7,1.7-.7,1.2.3,1.6.8c.4.5.6,1.2.6,2.1v.4h-3.7v-.9h2.7c0-.4-.1-.8-.3-1-.2-.2-.5-.4-.8-.4s-.7.1-.9.4c-.2.3-.3.6-.3,1.1v.7c0,.5.1.8.4,1,.2.2.6.4,1,.4s.4,0,.6-.1c.2,0,.4-.2.6-.4l.7.7c-.3.3-.6.5-.9.6-.3.1-.7.2-1,.2Z"/>
        <path class="cls-4" d="M236.7,50.4v-5.5h1.1v5.5h-1.1ZM239.7,46.2c0-.1-.2-.2-.4-.3-.1,0-.3,0-.5,0-.3,0-.6,0-.8.3-.2.2-.3.4-.3.8v-1.1c0-.3.3-.6.5-.8s.6-.3.9-.3.5,0,.7.1.4.2.5.3l-.7.9Z"/>
        <path class="cls-4" d="M244.3,50.5c-.5,0-.9,0-1.3-.2-.4-.1-.7-.4-1.1-.6l.6-.8c.3.2.6.4.9.5.3.1.6.2.9.2.4,0,.7,0,1-.2s.3-.3.3-.6,0-.3-.2-.4-.3-.1-.6-.2-.5,0-.7,0c-.2,0-.4,0-.7,0s-.4-.1-.6-.2-.3-.2-.4-.4-.2-.4-.2-.8c0-.6.2-1,.5-1.3.4-.3.9-.4,1.6-.4s.8,0,1.2.2c.4.1.7.3,1,.5l-.6.8c-.3-.2-.5-.3-.8-.4-.3,0-.5-.1-.8-.1-.4,0-.6,0-.8.2s-.3.3-.3.6,0,.3.2.4c.1,0,.3.1.5.1.2,0,.4,0,.7,0,.2,0,.5,0,.7,0,.2,0,.4.1.6.2.2.1.4.3.5.5.1.2.2.5.2.8,0,.6-.2,1-.6,1.3-.4.3-1,.4-1.7.4Z"/>
        <path class="cls-4" d="M255,48.8l1.3-3.9h1.1l-2.1,5.5h-.8l-2.1-5.5h1.1l1.3,3.9Z"/>
        <path class="cls-4" d="M261.3,42.7v7.7h-1.1v-6.5l-1.1.7v-1.1l1.1-.7h1.1Z"/>
      </g>
    </g>
  </g>
</svg>