<?xml version="1.0" encoding="UTF-8"?>
<svg xmlns="http://www.w3.org/2000/svg" version="1.1" xmlns:xlink="http://www.w3.org/1999/xlink" viewBox="0 0 269 56">
  <defs>
    <style>
      .cls-1 {
        fill: #fff;
      }

      .cls-2 {
        fill: url(#Adsız_degrade);
      }

      .cls-3 {
        fill: #ef305e;
      }
    </style>
    <linearGradient id="Adsız_degrade" data-name="Adsız degrade" x1="28.5" y1="31.9" x2="40" y2="28.9" gradientTransform="translate(0 58.4) scale(1 -1)" gradientUnits="userSpaceOnUse">
      <stop offset="0" stop-color="#000" stop-opacity=".2"/>
      <stop offset=".9" stop-color="#fff" stop-opacity="0"/>
    </linearGradient>
  </defs>
  <!-- Generator: Adobe Illustrator 28.6.0, SVG Export Plug-In . SVG Version: 1.2.0 Build 709)  -->
  <g>
    <g id="katman_1">
      <path class="cls-3" d="M61.1,2.8l15.2,47.4c.8,2.6-1.1,5.2-3.8,5.2h-11.2c-1.7,0-3.3-1.1-3.8-2.8L42.5,5.2C41.7,2.6,43.6,0,46.3,0h11C59,0,60.6,1.1,61.1,2.8Z"/>
      <g>
        <path class="cls-1" d="M46.5,37.8L35.8,3.4C35.2,1.4,33.3,0,31.1,0s-4.8,2.1-4.9,4.7l-1.3,25.7c0,.9,0,1.8.3,2.7l5.8,19.5c.5,1.7,2.1,2.9,3.8,2.9h5.4c1.7,0,3.3-1.1,3.8-2.8l2.4-7.5c.7-2.3.8-4.9,0-7.2Z"/>
        <path class="cls-2" d="M46.5,37.8L35.8,3.4C35.2,1.4,33.3,0,31.1,0s-4.8,2.1-4.9,4.7l-1.3,25.7c0,.9,0,1.8.3,2.7l5.8,19.5c.5,1.7,2.1,2.9,3.8,2.9h5.4c1.7,0,3.3-1.1,3.8-2.8l2.4-7.5c.7-2.3.8-4.9,0-7.2Z"/>
      </g>
      <path class="cls-3" d="M20.3,0h11C34,0,36,2.6,35.2,5.2l-14.9,47.8c-.5,1.7-2.1,2.8-3.8,2.8H5.4c-2.7,0-4.6-2.6-3.8-5.2L16.5,2.8C17,1.1,18.6,0,20.3,0Z"/>
      <g>
        <path class="cls-1" d="M95.9,28l4.8-16.1h5.4v26.5h-4.3v-19.5l.2,1.2-4.5,14.6h-3.3l-4.5-14.2.3-1.5v19.5h-4.3V11.9h5.4l4.7,16.1Z"/>
        <path class="cls-1" d="M115.2,38.7c-1.7,0-3-.5-3.9-1.4-.9-.9-1.3-2.3-1.3-4.2s.5-3.4,1.7-4.4c1.1-1,2.7-1.5,4.9-1.5h3.1l.3,3.7h-3.2c-.8,0-1.3.2-1.7.6-.4.4-.6.9-.6,1.7s.2,1,.5,1.3.9.4,1.6.4c1,0,1.7-.2,2.2-.5s.7-.8.7-1.5l.3,2.2c0,.8-.3,1.5-.7,2-.4.5-1,1-1.7,1.2s-1.4.4-2.2.4ZM119.4,38.4v-12.8c0-.7-.2-1.2-.6-1.6-.4-.4-1-.6-1.8-.6s-1.1.1-1.6.4c-.5.2-.8.6-1.1,1.1l-3.7-1.5c.4-1.3,1.1-2.4,2.2-3.1,1.1-.7,2.5-1.1,4.2-1.1s3.8.6,5,1.7c1.2,1.1,1.8,2.7,1.8,4.7v12.9h-4.4Z"/>
        <path class="cls-1" d="M132.7,38.7c-1.6,0-2.8-.6-3.7-1.8-.9-1.2-1.3-2.8-1.3-4.9v-6.1c0-2.1.4-3.8,1.3-4.9.9-1.2,2.1-1.8,3.7-1.8s1.8.3,2.5.9c.8.6,1.4,1.4,1.8,2.5l-.4,3.3c0-.5,0-.9-.2-1.3s-.4-.6-.7-.8c-.3-.2-.7-.3-1.1-.3-.7,0-1.2.2-1.6.7s-.6,1.1-.6,2v5.5c0,.8.2,1.4.6,1.9.4.5.9.7,1.6.7s.8,0,1.1-.3c.3-.2.6-.4.7-.8.2-.3.2-.8.2-1.3l.3,3.4c-.3,1-.9,1.8-1.6,2.4-.7.6-1.6.9-2.6.9ZM134.2,46.1c-1.8,0-3.3-.4-4.3-1.2-1.1-.8-1.7-2-2-3.7l4.5-1.4c.2.6.4,1.1.8,1.4.4.3.8.5,1.4.5s1.1-.2,1.5-.6c.4-.4.6-.9.6-1.7v-20h4.8v19.8c0,2.2-.6,3.9-1.9,5.1-1.3,1.2-3,1.8-5.3,1.8ZM134.6,16.5c-1.8,0-3.1-.5-4-1.5-.9-1-1.4-2.5-1.4-4.4v-.9h3.8v.7c0,1.8.5,2.7,1.5,2.7h.3c1,0,1.5-.9,1.5-2.7v-.7h3.8v.9c0,1.9-.5,3.4-1.4,4.4-.9,1-2.2,1.5-4,1.5h-.3Z"/>
        <path class="cls-1" d="M150.3,38.7c-1.7,0-3-.5-3.9-1.4-.9-.9-1.3-2.3-1.3-4.2s.5-3.4,1.7-4.4c1.1-1,2.7-1.5,4.9-1.5h3.1l.3,3.7h-3.2c-.8,0-1.3.2-1.7.6-.4.4-.6.9-.6,1.7s.2,1,.5,1.3c.4.3.9.4,1.6.4,1,0,1.7-.2,2.2-.5.5-.3.7-.8.7-1.5l.3,2.2c0,.8-.3,1.5-.7,2-.4.5-1,1-1.7,1.2s-1.4.4-2.2.4ZM154.6,38.4v-12.8c0-.7-.2-1.2-.6-1.6-.4-.4-1-.6-1.8-.6s-1.1.1-1.5.4c-.5.2-.8.6-1.1,1.1l-3.7-1.5c.4-1.3,1.1-2.4,2.2-3.1,1.1-.7,2.5-1.1,4.2-1.1s3.8.6,5,1.7,1.8,2.7,1.8,4.7v12.9h-4.4Z"/>
        <path class="cls-1" d="M175.1,19.5v4.1l-7.1,10.5h7.6v4.4h-12.9v-4.1l7.3-10.4h-7.1v-4.4h12.2Z"/>
        <path class="cls-1" d="M183.7,38.7c-1.7,0-3-.5-3.9-1.4-.9-.9-1.3-2.3-1.3-4.2s.5-3.4,1.7-4.4c1.1-1,2.7-1.5,4.9-1.5h3.1l.3,3.7h-3.2c-.8,0-1.3.2-1.7.6-.4.4-.6.9-.6,1.7s.2,1,.5,1.3c.4.3.9.4,1.6.4,1,0,1.7-.2,2.2-.5.5-.3.7-.8.7-1.5l.3,2.2c0,.8-.3,1.5-.7,2-.4.5-1,1-1.7,1.2s-1.4.4-2.2.4ZM187.9,38.4v-12.8c0-.7-.2-1.2-.6-1.6-.4-.4-1-.6-1.8-.6s-1.1.1-1.5.4c-.5.2-.8.6-1.1,1.1l-3.7-1.5c.4-1.3,1.1-2.4,2.2-3.1,1.1-.7,2.5-1.1,4.2-1.1s3.8.6,5,1.7,1.8,2.7,1.8,4.7v12.9h-4.4Z"/>
        <path class="cls-1" d="M192.5,16.5v-4.6h16.3v4.6h-16.3ZM198.3,38.4V14.1h4.8v24.3h-4.8Z"/>
        <path class="cls-1" d="M213.7,38.7c-1.7,0-3-.5-3.9-1.4-.9-.9-1.3-2.3-1.3-4.2s.5-3.4,1.7-4.4c1.1-1,2.7-1.5,4.9-1.5h3.1l.3,3.7h-3.2c-.8,0-1.3.2-1.7.6-.4.4-.6.9-.6,1.7s.2,1,.5,1.3c.4.3.9.4,1.6.4,1,0,1.7-.2,2.2-.5.5-.3.7-.8.7-1.5l.3,2.2c0,.8-.3,1.5-.7,2-.4.5-1,1-1.7,1.2s-1.4.4-2.2.4ZM218,38.4v-12.8c0-.7-.2-1.2-.6-1.6-.4-.4-1-.6-1.8-.6s-1.1.1-1.5.4c-.5.2-.8.6-1.1,1.1l-3.7-1.5c.4-1.3,1.1-2.4,2.2-3.1,1.1-.7,2.5-1.1,4.2-1.1s3.8.6,5,1.7,1.8,2.7,1.8,4.7v12.9h-4.4Z"/>
        <path class="cls-1" d="M226.7,38.4V11.9h4.7v26.5h-4.7ZM229.7,36.7l-.4-5.9,7.2-11.4h4.9l-11.8,17.2ZM237,38.4l-4.3-9.6,3.5-2.8,6.1,12.4h-5.3Z"/>
        <path class="cls-1" d="M243.7,16.6v-4.7h4.8v4.7h-4.8ZM243.7,38.4v-18.9h4.8v18.9h-4.8Z"/>
        <path class="cls-1" d="M252.4,46.1v-26.6h4.7v26.6h-4.7ZM261.1,38.7c-1,0-1.8-.3-2.6-.9s-1.3-1.4-1.6-2.4l.3-3.5c0,.5,0,.9.2,1.3.2.4.4.6.7.8.3.2.7.3,1.2.3.7,0,1.2-.2,1.6-.7.4-.5.6-1.1.6-2v-5.4c0-.9-.2-1.5-.6-2-.4-.5-.9-.7-1.6-.7s-.8,0-1.2.3c-.3.2-.6.5-.7.8-.2.4-.2.8-.2,1.3l-.4-3.3c.5-1.1,1.1-1.9,1.8-2.6.8-.6,1.6-.9,2.5-.9,1.6,0,2.9.6,3.7,1.8.9,1.2,1.3,2.8,1.3,5v6c0,2.1-.4,3.8-1.3,5s-2.1,1.8-3.8,1.8Z"/>
      </g>
      <g>
        <path class="cls-1" d="M157.1,48.7c-.5,0-.9-.1-1.3-.3-.4-.2-.6-.5-.8-.9-.2-.4-.3-.8-.3-1.3v-1.9c0-.5,0-1,.3-1.4s.5-.7.8-.9c.4-.2.8-.3,1.3-.3s.8,0,1.1.3c.3.2.6.4.8.7s.4.7.5,1.1h-1c0-.2-.2-.4-.3-.6-.1-.2-.3-.3-.5-.4s-.4-.1-.6-.1c-.4,0-.8.2-1,.4-.3.3-.4.7-.4,1.2v1.9c0,.5.1.9.4,1.2.3.3.6.4,1,.4s.6,0,.8-.3c.3-.2.4-.5.5-.8h1c0,.4-.2.8-.5,1.1-.2.3-.5.5-.8.7-.3.2-.7.3-1.1.3Z"/>
        <path class="cls-1" d="M162.7,41.7v5.6c0,.1,0,.2,0,.3,0,0,.1,0,.2,0h.5v.9h-.6c-.4,0-.6-.1-.8-.3-.2-.2-.3-.5-.3-1v-5.6h1Z"/>
        <path class="cls-1" d="M167.4,48.7c-.6,0-1.1-.2-1.5-.6-.4-.4-.5-.9-.5-1.6v-.8c0-.7.2-1.2.5-1.6.4-.4.9-.6,1.5-.6s1.1.2,1.5.6c.4.4.5.9.5,1.6v.8c0,.7-.2,1.2-.5,1.6s-.9.6-1.5.6ZM167.4,47.8c.3,0,.6-.1.8-.3.2-.2.3-.5.3-.9v-.8c0-.4,0-.7-.3-.9-.2-.2-.4-.3-.8-.3s-.6.1-.8.3c-.2.2-.3.5-.3.9v.8c0,.4,0,.7.3.9.2.2.4.3.8.3Z"/>
        <path class="cls-1" d="M172.6,43.7v3c0,.3,0,.6.3.8.2.2.4.3.7.3s.6,0,.7-.3c.2-.2.3-.4.3-.7v1c0,.2-.2.4-.4.6-.2.2-.5.3-.9.3-.5,0-1-.2-1.3-.5-.3-.3-.4-.8-.4-1.5v-3h1ZM174.6,48.6v-4.9h1v4.9h-1Z"/>
        <path class="cls-1" d="M179.6,48.7c-.5,0-1-.2-1.3-.5s-.4-.8-.4-1.5v-1.1c0-.6.1-1.1.4-1.5.3-.3.7-.5,1.2-.5s.6,0,.8.2c.2.2.4.4.6.6v1c0-.2-.1-.4-.2-.5,0-.1-.2-.3-.3-.3s-.3-.1-.5-.1c-.3,0-.6,0-.7.3-.2.2-.3.5-.3.8v1.1c0,.4,0,.6.3.8.2.2.4.3.7.3s.4,0,.5-.1.3-.2.3-.3.1-.3.1-.5v1c0,.2-.2.4-.4.6-.2.2-.5.3-.8.3ZM180.8,48.6v-6.9h1v6.9h-1Z"/>
        <path class="cls-1" d="M189.4,47.1l1.4-5.4h.7l1.4,5.4,1.2-5.4h1l-1.7,6.9h-1l-1.3-4.8-1.3,4.8h-1l-1.7-6.9h1l1.2,5.4Z"/>
        <path class="cls-1" d="M198.4,48.7c-.6,0-1.1-.2-1.5-.6-.4-.4-.5-.9-.5-1.6v-.8c0-.7.2-1.2.5-1.6.4-.4.9-.6,1.5-.6s1.1.2,1.5.6c.4.4.5.9.5,1.6v.8c0,.7-.2,1.2-.5,1.6s-.9.6-1.5.6ZM198.4,47.8c.3,0,.6-.1.8-.3.2-.2.3-.5.3-.9v-.8c0-.4,0-.7-.3-.9-.2-.2-.4-.3-.8-.3s-.6.1-.8.3c-.2.2-.3.5-.3.9v.8c0,.4,0,.7.3.9.2.2.4.3.8.3Z"/>
        <path class="cls-1" d="M202.8,48.6v-4.9h1v4.9h-1ZM205.5,44.9c0-.1-.2-.2-.3-.2-.1,0-.3,0-.5,0-.3,0-.5,0-.7.3-.2.2-.3.4-.3.7v-.9c0-.3.2-.5.5-.7.2-.2.5-.2.8-.2s.4,0,.6,0c.2,0,.3.2.5.3l-.6.9Z"/>
        <path class="cls-1" d="M207.9,48.6v-6.9h1v6.9h-1ZM208.3,47.9v-1.1c0,0,2.6-3.1,2.6-3.1h1.1l-3.7,4.2ZM211.2,48.6l-1.7-2.8.6-.6,2.1,3.5h-1.1Z"/>
        <path class="cls-1" d="M216,48.7c-.7,0-1.2-.2-1.6-.6-.4-.4-.6-.9-.6-1.6v-.6c0-.7.2-1.3.5-1.7.4-.4.9-.6,1.5-.6s1.1.2,1.4.7c.3.5.5,1.1.5,1.9v.3h-3.3v-.8h2.4c0-.4-.1-.7-.3-.9-.2-.2-.4-.3-.7-.3s-.6.1-.8.4-.3.6-.3,1v.6c0,.4.1.7.3.9.2.2.5.3.9.3s.4,0,.6-.1c.2,0,.4-.2.5-.3l.6.6c-.2.2-.5.4-.8.5-.3.1-.6.2-.9.2Z"/>
        <path class="cls-1" d="M220.2,48.6v-4.9h1v4.9h-1ZM222.9,44.9c0-.1-.2-.2-.3-.2-.1,0-.3,0-.5,0-.3,0-.5,0-.7.3-.2.2-.3.4-.3.7v-.9c0-.3.2-.5.5-.7.2-.2.5-.2.8-.2s.4,0,.6,0c.2,0,.3.2.5.3l-.6.9Z"/>
        <path class="cls-1" d="M227,48.7c-.4,0-.8,0-1.2-.2-.4-.1-.7-.3-1-.6l.6-.7c.3.2.5.4.8.5.3.1.5.2.8.2.4,0,.7,0,.9-.2.2-.1.3-.3.3-.5s0-.3-.2-.4-.3-.1-.5-.1-.4,0-.7,0c-.2,0-.4,0-.6,0-.2,0-.4,0-.5-.2-.2,0-.3-.2-.4-.4s-.1-.4-.1-.7c0-.5.2-.9.5-1.2.3-.3.8-.4,1.4-.4s.7,0,1.1.2c.3.1.6.3.9.5l-.6.7c-.2-.2-.5-.3-.7-.4-.2,0-.5-.1-.7-.1-.3,0-.6,0-.7.2-.2.1-.2.3-.2.5s0,.3.2.3c.1,0,.3.1.4.1.2,0,.4,0,.6,0,.2,0,.4,0,.6,0s.4,0,.6.2c.2,0,.3.2.4.4.1.2.2.4.2.8,0,.5-.2.9-.5,1.2-.3.3-.9.4-1.5.4Z"/>
        <path class="cls-1" d="M236.6,47.2l1.2-3.5h1l-1.8,4.9h-.7l-1.8-4.9h1l1.2,3.5Z"/>
        <path class="cls-1" d="M242.3,41.7v6.9h-1v-5.8l-1,.6v-1l1-.7h1Z"/>
      </g>
    </g>
  </g>
</svg>